<svg id="Layer_1" data-name="Layer 1" xmlns="http://www.w3.org/2000/svg" viewBox="0 0 53.37 20.85"><defs><style>.cls-1{fill:#fff;}</style></defs><title>logo</title><path class="cls-1" d="M7.33,3.24c2.86,0,5.12,2.35,5.08,6s-2.33,6-5.19,6a4.2,4.2,0,0,1-3.58-1.83L3.57,20.6,0,20.56.16,3.34l3.57,0V5A4.1,4.1,0,0,1,7.33,3.24ZM6.23,6.35A2.61,2.61,0,0,0,3.66,9.21a2.6,2.6,0,0,0,2.52,2.9,2.63,2.63,0,0,0,2.6-2.88A2.6,2.6,0,0,0,6.23,6.35Z"/><path class="cls-1" d="M18.78,3.35A4,4,0,0,1,22.35,5.2l0-1.65,3.57,0-.1,11.66-3.58,0,0-1.65a4.11,4.11,0,0,1-3.63,1.78c-2.85,0-5.1-2.38-5.07-6.06S15.92,3.32,18.78,3.35Zm1,3.12a2.6,2.6,0,0,0-2.57,2.84,2.57,2.57,0,1,0,5.1.07A2.62,2.62,0,0,0,19.79,6.47Z"/><path class="cls-1" d="M36.58,3.68l3.86,0L33,20.85l-3.84,0,2.73-5.91L27.22,3.59l4,0L33.84,11Z"/><path class="cls-1" d="M46.17,3.6a4.3,4.3,0,0,1,3.58,1.81L49.8,0l3.57,0L53.23,15.5l-3.58,0,0-1.67a4.05,4.05,0,0,1-3.61,1.81c-2.86,0-5.12-2.39-5.09-6.07S43.31,3.58,46.17,3.6Zm1,3.13a2.59,2.59,0,0,0-2.58,2.83,2.64,2.64,0,0,0,2.52,2.93,2.6,2.6,0,0,0,2.58-2.86A2.6,2.6,0,0,0,47.19,6.73Z"/></svg>