<svg id="Layer_1" data-name="Layer 1" xmlns="http://www.w3.org/2000/svg" viewBox="0 0 29.72 11.61"><defs><style>.cls-1{fill:#fff;}</style></defs><title>logo-01</title><path class="cls-1" d="M4.08,1.81c1.59,0,2.85,1.3,2.83,3.35S5.61,8.5,4,8.49a2.32,2.32,0,0,1-2-1l0,4-2,0L.09,1.86l2,0V2.8A2.29,2.29,0,0,1,4.08,1.81ZM3.47,3.53A1.46,1.46,0,0,0,2,5.13a1.46,1.46,0,0,0,1.4,1.62A1.48,1.48,0,0,0,4.89,5.14,1.45,1.45,0,0,0,3.47,3.53Z"/><path class="cls-1" d="M10.46,1.87a2.24,2.24,0,0,1,2,1V2l2,0-.06,6.49-2,0V7.55a2.3,2.3,0,0,1-2,1c-1.58,0-2.84-1.33-2.82-3.37S8.86,1.85,10.46,1.87ZM11,3.6A1.45,1.45,0,0,0,9.59,5.19a1.43,1.43,0,1,0,2.84,0A1.46,1.46,0,0,0,11,3.6Z"/><path class="cls-1" d="M20.37,2.05l2.15,0-4.16,9.54-2.14,0L17.74,8.3,15.16,2l2.22,0L18.84,6.1Z"/><path class="cls-1" d="M25.71,2a2.37,2.37,0,0,1,2,1l0-3,2,0-.08,8.61-2,0V7.68a2.28,2.28,0,0,1-2,1c-1.6,0-2.85-1.33-2.83-3.38S24.12,2,25.71,2Zm.57,1.74a1.44,1.44,0,0,0-1.44,1.58,1.43,1.43,0,1,0,2.84,0A1.44,1.44,0,0,0,26.28,3.75Z"/></svg>